<?xml version="1.0" encoding="iso-8859-1"?>
<!-- Generator: Adobe Illustrator 19.0.0, SVG Export Plug-In . SVG Version: 6.00 Build 0)  -->
<svg version="1.1" id="Capa_1" xmlns="http://www.w3.org/2000/svg" xmlns:xlink="http://www.w3.org/1999/xlink" x="0px" y="0px"
	 viewBox="0 0 496 496" style="enable-background:new 0 0 496 496;" xml:space="preserve">
<g>
	<g>
		<path d="M324.856,128c-8.288,0-16.568,1.312-24.608,3.856l53.048-75.152L324.944,0H248h-76.944l-28.352,56.704l53.048,75.152
			c-8.048-2.544-16.32-3.856-24.608-3.856C125.296,128,88,165.296,88,211.144c0,51.928,15.616,101.928,45.168,144.6
			c18.192,26.28,31.352,55.336,39.112,86.352l8.552,34.232c2.896,11.584,13.264,19.672,25.2,19.672
			c14.32,0,25.968-11.648,25.968-25.968V368c0-8.824,7.176-16,16-16c8.824,0,16,7.176,16,16v102.032
			c0,14.32,11.648,25.968,25.968,25.968c11.936,0,22.304-8.088,25.192-19.672l8.552-34.232c7.76-31.016,20.912-60.072,39.112-86.352
			c29.56-42.672,45.176-92.672,45.176-144.6C408,165.296,370.704,128,324.856,128z M266.088,152.504l-0.72,0.608L286.336,64h42.224
			L266.088,152.504z M248,157.064L226.104,64h43.792L248,157.064z M331.056,48H297.08l21.232-25.48L331.056,48z M302.912,16
			l-22.2,26.648L262.944,16H302.912z M265.056,48h-34.112L248,22.424L265.056,48z M233.056,16l-17.768,26.648L193.088,16H233.056z
			 M177.688,22.52L198.92,48h-33.968L177.688,22.52z M167.44,64h42.224l20.968,89.104l-0.728-0.624L167.44,64z M349.672,346.632
			c-19.296,27.872-33.248,58.688-41.472,91.584l-8.552,34.232c-1.12,4.448-5.096,7.552-9.68,7.552c-5.496,0-9.968-4.472-9.968-9.968
			V368c0-17.648-14.352-32-32-32s-32,14.352-32,32v102.032c0,5.496-4.472,9.968-9.968,9.968c-4.584,0-8.56-3.104-9.68-7.544
			l-8.552-34.232c-8.216-32.896-22.168-63.712-41.472-91.584C118.632,306.648,104,259.8,104,211.144
			C104,174.12,134.12,144,171.144,144c13.256,0,26.576,4.208,38.536,12.176l8.256,7.112l13.416,19.008
			c-10.768-2.168-21.032-6.384-30.24-12.6l-8.952,13.264C208.68,194.112,227.984,200,248,200s39.32-5.888,55.84-17.04l-8.952-13.264
			c-9.208,6.216-19.472,10.44-30.248,12.608l13.416-19.008l8.256-7.112C298.28,148.208,311.6,144,324.856,144
			C361.88,144,392,174.12,392,211.144C392,259.8,377.368,306.648,349.672,346.632z"/>
	</g>
</g>
<g>
	<g>
		<rect x="72" y="80" width="16" height="16"/>
	</g>
</g>
<g>
	<g>
		<rect x="56" y="96" width="16" height="16"/>
	</g>
</g>
<g>
	<g>
		<rect x="72" y="112" width="16" height="16"/>
	</g>
</g>
<g>
	<g>
		<rect x="88" y="96" width="16" height="16"/>
	</g>
</g>
<g>
	<g>
		<path d="M72,352H56c0,30.872-25.128,56-56,56v16c30.872,0,56,25.128,56,56h16c0-30.872,25.128-56,56-56v-16
			C97.128,408,72,382.872,72,352z M64,447.16C57.12,433.8,46.2,422.88,32.84,416c13.36-6.88,24.28-17.8,31.16-31.16
			c6.88,13.36,17.8,24.28,31.16,31.16C81.8,422.88,70.88,433.8,64,447.16z"/>
	</g>
</g>
<g>
	<g>
		<path d="M440,16h-16c0,30.872-25.128,56-56,56v16c30.872,0,56,25.128,56,56h16c0-30.872,25.128-56,56-56V72
			C465.128,72,440,46.872,440,16z M432,111.16C425.12,97.8,414.2,86.88,400.84,80c13.36-6.88,24.28-17.8,31.16-31.16
			c6.88,13.36,17.8,24.28,31.16,31.16C449.8,86.88,438.88,97.8,432,111.16z"/>
	</g>
</g>
<g>
	<g>
		<rect x="400" y="376" width="16" height="16"/>
	</g>
</g>
<g>
	<g>
		<rect x="384" y="392" width="16" height="16"/>
	</g>
</g>
<g>
	<g>
		<rect x="400" y="408" width="16" height="16"/>
	</g>
</g>
<g>
	<g>
		<rect x="416" y="392" width="16" height="16"/>
	</g>
</g>
<g>
</g>
<g>
</g>
<g>
</g>
<g>
</g>
<g>
</g>
<g>
</g>
<g>
</g>
<g>
</g>
<g>
</g>
<g>
</g>
<g>
</g>
<g>
</g>
<g>
</g>
<g>
</g>
<g>
</g>
</svg>
