<?xml version="1.0" encoding="iso-8859-1"?>
<!-- Generator: Adobe Illustrator 19.0.0, SVG Export Plug-In . SVG Version: 6.00 Build 0)  -->
<svg version="1.1" id="Capa_1" xmlns="http://www.w3.org/2000/svg" xmlns:xlink="http://www.w3.org/1999/xlink" x="0px" y="0px"
	 viewBox="0 0 395.947 395.947" style="enable-background:new 0 0 395.947 395.947;" xml:space="preserve">
<g>
	<g>
		<path d="M337.347,141.595c-3.888-0.201-7.021,2.57-7.287,6.328c-7.482,106.158-39.141,234.37-67.014,234.407
			c-6.625-2.775-13.08-39.414-17.347-63.659c-9.032-51.275-18.374-104.294-47.753-104.397
			c-24.607,0.102-34.191,48.039-44.346,98.792c-4.987,24.921-13.332,66.632-20.48,69.226c-21.32,0-59.081-100.502-67.56-239.343
			c-0.225-3.762-3.434-6.639-7.226-6.397c-3.768,0.229-6.632,3.465-6.4,7.229c2.338,38.356,10.592,100.704,23.74,153.532
			c16.514,66.369,35.308,98.632,57.446,98.632c16.995,0,23.62-28.979,33.867-80.2c6.567-32.826,17.551-87.76,30.959-87.818
			c17.913,0.061,27.781,56.057,34.307,93.109c7.946,45.111,13.193,74.909,30.573,74.909c52.681,0,77.172-194.877,80.848-247.06
			C343.941,145.125,341.108,141.862,337.347,141.595z"/>
	</g>
</g>
<g>
	<g>
		<path d="M262.827,0c-12.346,0-24.04,5.54-35.345,10.895c-10.407,4.932-20.234,9.585-29.508,9.585s-19.101-4.652-29.508-9.585
			C157.16,5.54,145.466,0,133.12,0C87.241,0,53.6,47.63,51.319,115.825c-0.126,3.768,2.826,6.926,6.595,7.052
			c0.072,0.003,0.154,0.003,0.232,0.003c3.659,0,6.694-2.908,6.813-6.598C66.952,56.815,95.621,13.653,133.12,13.653
			c9.274,0,19.101,4.652,29.508,9.585c11.305,5.356,22.999,10.895,35.345,10.895s24.04-5.54,35.345-10.895
			c10.407-4.932,20.234-9.585,29.508-9.585c37.219,0,65.201,41.028,68.041,99.772c0.188,3.765,3.482,6.567,7.154,6.489
			c3.758-0.184,6.666-3.383,6.485-7.151C341.292,46.37,307.705,0,262.827,0z"/>
	</g>
</g>
<g>
	<g>
		<path d="M276.48,75.319H119.467c-3.649,0-6.601,2.959-6.601,6.601v95.573c0,3.645,2.956,6.601,6.601,6.601H276.48
			c3.645,0,6.601-2.959,6.601-6.601V81.92C283.081,78.275,280.125,75.319,276.48,75.319z M269.882,170.892H126.068V88.521h143.814
			V170.892z"/>
	</g>
</g>
<g>
	<g>
		<path d="M119.467,109.452H10.24c-3.649,0-6.601,2.959-6.601,6.601v27.307c0,3.645,2.956,6.601,6.601,6.601h109.227
			c3.645,0,6.601-2.959,6.601-6.601v-27.307C126.068,112.408,123.112,109.452,119.467,109.452z M112.869,136.759H16.841v-14.107
			h96.027V136.759z"/>
	</g>
</g>
<g>
	<g>
		<path d="M385.707,109.452H276.48c-3.649,0-6.601,2.959-6.601,6.601v27.307c0,3.645,2.956,6.601,6.601,6.601h109.227
			c3.645,0,6.601-2.959,6.601-6.601v-27.307C392.308,112.408,389.352,109.452,385.707,109.452z M379.109,136.759h-96.027v-14.107
			h96.027V136.759z"/>
	</g>
</g>
<g>
	<g>
		<path d="M174.08,95.573H153.6c-3.772,0-6.827,3.058-6.827,6.827v54.613c0,3.768,3.055,6.827,6.827,6.827h20.48
			c3.772,0,6.827-3.058,6.827-6.827V102.4C180.907,98.632,177.852,95.573,174.08,95.573z M167.253,150.187h-6.827v-40.96h6.827
			V150.187z"/>
	</g>
</g>
<g>
	<g>
		<path d="M235.52,95.573h-20.48c-3.772,0-6.827,3.058-6.827,6.827v54.613c0,3.768,3.055,6.827,6.827,6.827h20.48
			c3.772,0,6.827-3.058,6.827-6.827V102.4C242.347,98.632,239.292,95.573,235.52,95.573z M228.693,150.187h-6.827v-40.96h6.827
			V150.187z"/>
	</g>
</g>
<g>
	<g>
		<path d="M276.48,122.88h-40.96c-3.772,0-6.827,3.058-6.827,6.827s3.055,6.827,6.827,6.827h40.96c3.772,0,6.827-3.058,6.827-6.827
			S280.252,122.88,276.48,122.88z"/>
	</g>
</g>
<g>
	<g>
		<path d="M215.04,122.88h-40.96c-3.772,0-6.827,3.058-6.827,6.827s3.055,6.827,6.827,6.827h40.96c3.772,0,6.827-3.058,6.827-6.827
			S218.812,122.88,215.04,122.88z"/>
	</g>
</g>
<g>
	<g>
		<path d="M146.773,122.88h-27.307c-3.772,0-6.827,3.058-6.827,6.827s3.055,6.827,6.827,6.827h27.307
			c3.772,0,6.827-3.058,6.827-6.827S150.545,122.88,146.773,122.88z"/>
	</g>
</g>
<g>
</g>
<g>
</g>
<g>
</g>
<g>
</g>
<g>
</g>
<g>
</g>
<g>
</g>
<g>
</g>
<g>
</g>
<g>
</g>
<g>
</g>
<g>
</g>
<g>
</g>
<g>
</g>
<g>
</g>
</svg>
