<?xml version="1.0" encoding="iso-8859-1"?>
<!-- Generator: Adobe Illustrator 19.0.0, SVG Export Plug-In . SVG Version: 6.00 Build 0)  -->
<svg version="1.1" id="Capa_1" xmlns="http://www.w3.org/2000/svg" xmlns:xlink="http://www.w3.org/1999/xlink" x="0px" y="0px"
	 viewBox="0 0 402.063 402.063" style="enable-background:new 0 0 402.063 402.063;" xml:space="preserve">
<g>
	<g>
		<path d="M336.855,57.461c-9.926,0-19.193,4.417-28.153,8.687c-7.98,3.809-15.52,7.404-22.467,7.404
			c-3.649,0-6.601,2.956-6.601,6.601c0,3.645,2.956,6.601,6.601,6.601c9.926,0,19.193-4.417,28.153-8.687
			c7.98-3.809,15.52-7.404,22.467-7.404c30.133,0,52.006,35.574,52.006,84.582c0,61.597-26.286,200.69-51.487,202.571
			c-4.779-4.045-9.499-31-12.64-48.951c-4.584-26.211-9.325-53.309-18.432-68.973c-1.836-3.151-5.888-4.216-9.021-2.389
			c-3.154,1.836-4.226,5.874-2.393,9.025c7.922,13.626,12.66,40.714,16.848,64.614c6.304,36.069,10.479,59.897,25.119,59.897
			c46.414,0,65.208-185.03,65.208-215.798C402.063,98.584,374.634,57.461,336.855,57.461z"/>
	</g>
</g>
<g>
	<g>
		<path d="M248.108,57.467c-9.926,0-19.193,4.417-28.153,8.687c-7.98,3.809-15.52,7.404-22.467,7.404
			c-6.946,0-14.486-3.594-22.467-7.404c-8.96-4.27-18.227-8.687-28.153-8.687c-37.782,0-65.208,41.12-65.208,97.782
			c0,30.761,18.794,215.791,65.208,215.791c14.292,0,19.319-21.951,27.679-64.017c4.721-23.75,13.507-67.959,22.914-68
			c12.916,0.048,20.815,45.172,25.528,72.134c6.311,36.062,10.479,59.883,25.119,59.883c46.414,0,65.208-185.03,65.208-215.791
			C313.317,98.591,285.887,57.467,248.108,57.467z M248.631,357.82c-4.779-4.045-9.492-30.99-12.633-48.94
			c-7.141-40.789-14.52-82.971-38.533-83.057c-20.255,0.089-27.488,36.485-35.861,78.63c-3.919,19.729-9.813,49.388-15.186,53.374
			c-25.221-1.649-51.555-140.926-51.555-202.578c0-49.009,21.873-84.582,52.006-84.582c6.946,0,14.486,3.594,22.47,7.404
			c8.96,4.27,18.227,8.687,28.153,8.687c9.926,0,19.193-4.417,28.153-8.687c7.98-3.809,15.52-7.404,22.467-7.404
			c30.133,0,52.005,35.574,52.005,84.582C300.117,216.843,273.824,355.922,248.631,357.82z"/>
	</g>
</g>
<g>
	<g>
		<path d="M173.94,133.994l-20.306-11.11l-11.114-20.309c-2.386-4.379-9.588-4.379-11.974,0l-11.114,20.309l-20.306,11.11
			c-2.195,1.198-3.553,3.492-3.553,5.99c0,2.499,1.359,4.792,3.553,5.99l20.306,11.107l11.114,20.313
			c1.195,2.188,3.495,3.55,5.987,3.55c2.495,0,4.796-1.362,5.987-3.55l11.114-20.313l20.306-11.107
			c2.195-1.198,3.553-3.492,3.553-5.99C177.493,137.486,176.135,135.192,173.94,133.994z M145.326,146.06
			c-1.147,0.628-2.086,1.57-2.714,2.714l-6.079,11.114l-6.079-11.114c-0.628-1.143-1.567-2.086-2.714-2.714l-11.114-6.076
			l11.114-6.079c1.147-0.628,2.086-1.57,2.714-2.714l6.079-11.114l6.079,11.114c0.628,1.143,1.567,2.086,2.714,2.714l11.114,6.079
			L145.326,146.06z"/>
	</g>
</g>
<g>
	<g>
		<path d="M78.367,65.728l-20.306-11.11L46.947,34.308c-2.386-4.379-9.588-4.379-11.974,0L23.859,54.617L3.553,65.728
			C1.359,66.926,0,69.219,0,71.718c0,2.499,1.359,4.792,3.553,5.99l20.306,11.107l11.114,20.313c1.195,2.188,3.495,3.55,5.987,3.55
			c2.495,0,4.796-1.362,5.987-3.55l11.114-20.313l20.306-11.107c2.195-1.198,3.553-3.492,3.553-5.99
			C81.92,69.219,80.562,66.926,78.367,65.728z M49.753,77.794c-1.147,0.628-2.086,1.57-2.714,2.714L40.96,91.621l-6.079-11.114
			c-0.628-1.143-1.567-2.086-2.714-2.714l-11.114-6.076l11.114-6.079c1.147-0.628,2.086-1.57,2.714-2.714l6.079-11.114l6.079,11.114
			c0.628,1.143,1.567,2.086,2.714,2.714l11.114,6.079L49.753,77.794z"/>
	</g>
</g>
<g>
	<g>
		<path d="M273.34,106.691l-13.954-7.636l-7.639-13.961c-2.386-4.372-9.588-4.372-11.974,0l-7.639,13.961l-13.954,7.636
			c-2.195,1.201-3.553,3.499-3.553,5.99c0,2.499,1.359,4.792,3.553,5.99l13.954,7.632l7.639,13.961
			c1.195,2.191,3.495,3.55,5.987,3.55c2.495,0,4.796-1.362,5.987-3.55l7.639-13.961l13.954-7.632
			c2.195-1.198,3.553-3.495,3.553-5.99C276.893,110.186,275.534,107.892,273.34,106.691z M251.085,115.282
			c-1.147,0.628-2.086,1.57-2.714,2.714l-2.608,4.765l-2.608-4.765c-0.628-1.143-1.567-2.086-2.714-2.714l-4.762-2.604l4.762-2.608
			c1.147-0.628,2.086-1.57,2.714-2.714l2.608-4.765l2.608,4.765c0.628,1.143,1.567,2.086,2.714,2.714l4.762,2.608L251.085,115.282z"
			/>
	</g>
</g>
<g>
	<g>
		<path d="M95.846,243.224l-13.954-7.636l-7.639-13.961c-2.386-4.372-9.588-4.372-11.974,0l-7.639,13.961l-13.954,7.636
			c-2.195,1.201-3.553,3.499-3.553,5.99c0,2.499,1.359,4.792,3.553,5.99l13.954,7.632l7.639,13.961
			c1.195,2.191,3.495,3.55,5.987,3.55c2.495,0,4.796-1.362,5.987-3.55l7.639-13.961l13.954-7.632
			c2.195-1.198,3.553-3.495,3.553-5.99C99.4,246.72,98.041,244.426,95.846,243.224z M73.591,251.816
			c-1.147,0.628-2.086,1.57-2.714,2.714l-2.608,4.765l-2.608-4.765c-0.628-1.143-1.567-2.086-2.714-2.714l-4.762-2.604l4.762-2.608
			c1.147-0.628,2.086-1.57,2.714-2.714l2.608-4.765l2.608,4.765c0.628,1.143,1.567,2.086,2.714,2.714l4.762,2.608L73.591,251.816z"
			/>
	</g>
</g>
<g>
	<g>
		<path d="M375.74,202.264l-13.954-7.636l-7.639-13.961c-2.386-4.372-9.588-4.372-11.974,0l-7.639,13.961l-13.954,7.636
			c-2.195,1.201-3.553,3.499-3.553,5.99c0,2.499,1.359,4.792,3.553,5.99l13.954,7.632l7.639,13.961
			c1.195,2.191,3.495,3.55,5.987,3.55c2.495,0,4.796-1.362,5.987-3.55l7.639-13.961l13.954-7.632
			c2.195-1.198,3.553-3.495,3.553-5.99S377.935,203.466,375.74,202.264z M353.485,210.856c-1.147,0.628-2.086,1.57-2.714,2.714
			l-2.608,4.765l-2.608-4.765c-0.628-1.143-1.567-2.086-2.714-2.714l-4.762-2.604l4.762-2.608c1.147-0.628,2.086-1.57,2.714-2.714
			l2.608-4.765l2.608,4.765c0.628,1.143,1.567,2.086,2.714,2.714l4.762,2.608L353.485,210.856z"/>
	</g>
</g>
<g>
</g>
<g>
</g>
<g>
</g>
<g>
</g>
<g>
</g>
<g>
</g>
<g>
</g>
<g>
</g>
<g>
</g>
<g>
</g>
<g>
</g>
<g>
</g>
<g>
</g>
<g>
</g>
<g>
</g>
</svg>
