<?xml version="1.0" encoding="UTF-8" standalone="no"?>
<svg
   xmlns:dc="http://purl.org/dc/elements/1.1/"
   xmlns:cc="http://creativecommons.org/ns#"
   xmlns:rdf="http://www.w3.org/1999/02/22-rdf-syntax-ns#"
   xmlns:svg="http://www.w3.org/2000/svg"
   xmlns="http://www.w3.org/2000/svg"
   xmlns:sodipodi="http://sodipodi.sourceforge.net/DTD/sodipodi-0.dtd"
   xmlns:inkscape="http://www.inkscape.org/namespaces/inkscape"
   inkscape:version="1.0 (6e3e5246a0, 2020-05-07)"
   sodipodi:docname="icon_smile-design.svg"
   xml:space="preserve"
   style="enable-background:new 0 0 498.6 498.6;"
   viewBox="0 0 498.6 498.6"
   y="0px"
   x="0px"
   id="Capa_1"
   version="1.1"><metadata
   id="metadata109"><rdf:RDF><cc:Work
       rdf:about=""><dc:format>image/svg+xml</dc:format><dc:type
         rdf:resource="http://purl.org/dc/dcmitype/StillImage" /><dc:title></dc:title></cc:Work></rdf:RDF></metadata><defs
   id="defs107" /><sodipodi:namedview
   inkscape:current-layer="Capa_1"
   inkscape:window-maximized="1"
   inkscape:window-y="27"
   inkscape:window-x="40"
   inkscape:cy="271.412"
   inkscape:cx="407.39316"
   inkscape:zoom="0.77545167"
   showgrid="false"
   id="namedview105"
   inkscape:window-height="704"
   inkscape:window-width="1326"
   inkscape:pageshadow="2"
   inkscape:pageopacity="0"
   guidetolerance="10"
   gridtolerance="10"
   objecttolerance="10"
   borderopacity="1"
   bordercolor="#666666"
   pagecolor="#ffffff" />
<g
   style="fill:#ffffff"
   id="g6">
	<g
   style="fill:#ffffff"
   id="g4">
		<path
   style="fill:#ffffff"
   id="path2"
   d="M370.6,191.804l-106.816,49.848l-0.512-1.808c-3.904-13.664-16.56-23.208-30.776-23.208h-8.36    c3.104-4.424,6.448-8.68,10.28-12.504c20.752-20.752,32.184-48.344,32.184-77.688v-9.832c0-37.48-30.496-67.976-67.976-67.976    c-12.568,0-25.112,3.632-36.264,10.496c-5.848,3.608-11.296,5.504-15.76,5.504s-9.912-1.896-15.76-5.504    c-11.152-6.864-23.696-10.496-36.264-10.496c-37.48,0-67.976,30.496-67.976,67.976v9.832c0,29.344,11.432,56.936,32.176,77.688    c3.832,3.824,7.184,8.08,10.288,12.504h-8.36c-14.208,0-26.864,9.544-30.776,23.208L0,344.636h246.104    c10.504,55.56,44.36,105.248,93.6,134.792l30.896,18.536l30.896-18.536C461.392,443.492,498.6,377.78,498.6,307.924V251.54    L370.6,191.804z M42.6,126.444v-9.832c0-28.656,23.32-51.976,51.976-51.976c9.6,0,19.24,2.816,27.872,8.128    c16.984,10.456,31.312,10.456,48.296,0c8.64-5.312,18.28-8.128,27.88-8.128c28.656,0,51.976,23.32,51.976,51.976v9.832    c0,25.072-9.768,48.648-27.496,66.376c-12.824,12.824-22.344,28.768-27.552,46.128l-13.672,45.584    c-0.736,2.456-2.952,4.104-5.52,4.104c-3.176,0-5.76-2.584-5.76-5.76v-82.24c0-13.232-10.768-24-24-24s-24,10.768-24,24v82.24    c0,3.168-2.584,5.76-5.76,5.76c-2.568,0-4.792-1.648-5.52-4.104L97.648,238.94c-5.208-17.36-14.736-33.304-27.552-46.128    C52.368,175.092,42.6,151.508,42.6,126.444z M242.6,251.54v56.384c0,6.96,0.472,13.856,1.192,20.712H21.2l24.12-84.4    c1.952-6.824,8.272-11.6,15.384-11.6h17.592c1.568,3.544,2.912,7.184,4.024,10.896l13.672,45.6    c2.784,9.28,11.168,15.504,20.848,15.504c12,0,21.76-9.76,21.76-21.76v-82.24c0-4.416,3.584-8,8-8s8,3.584,8,8v82.24    c0,12,9.76,21.76,21.76,21.76c9.68,0,18.064-6.224,20.848-15.504l13.672-45.592c1.112-3.72,2.464-7.36,4.024-10.896h17.592    c7.112,0,13.432,4.776,15.384,11.6l1.216,4.272L242.6,251.54z M482.6,307.924c0,64.264-34.232,124.728-89.336,157.784    l-22.664,13.6l-22.664-13.6c-55.104-33.056-89.336-93.52-89.336-157.784v-46.192l112-52.264l112,52.264V307.924z" />
	</g>
</g>
<g
   style="fill:#ffffff"
   id="g12">
	<g
   style="fill:#ffffff"
   id="g10">
		<path
   style="fill:#ffffff"
   id="path8"
   d="M370.6,227.116l-96,44.808v36c0,58.672,31.256,113.872,81.568,144.064l14.432,8.656l14.44-8.656    c50.312-30.184,81.56-85.392,81.56-144.064v-36L370.6,227.116z M450.6,307.924c0,53.088-28.272,103.032-73.8,130.344l-6.2,3.72    l-6.192-3.72C318.88,410.956,290.6,361.012,290.6,307.924v-25.816l80-37.336l80,37.336V307.924z" />
	</g>
</g>
<g
   style="fill:#ffffff"
   id="g18">
	<g
   style="fill:#ffffff"
   id="g16">
		<polygon
   style="fill:#ffffff"
   id="polygon14"
   points="404.944,298.98 346.6,357.324 336.256,346.98 324.944,358.292 346.6,379.948 416.256,310.292   " />
	</g>
</g>
<g
   style="fill:#ffffff"
   id="g24">
	<g
   style="fill:#ffffff"
   id="g22">
		<path
   style="fill:#ffffff"
   id="path20"
   d="M181.912,84.604c-23.952,15.968-46.68,15.96-70.616,0.008l-8.872,13.312c14.648,9.76,29.504,14.712,44.176,14.712    s29.536-4.952,44.184-14.72L181.912,84.604z" />
	</g>
</g>
<g
   style="fill:#ffffff"
   id="g30">
	<g
   style="fill:#ffffff"
   id="g28">
		<rect
   style="fill:#ffffff"
   id="rect26"
   height="16"
   width="16"
   y="0.636"
   x="282.6" />
	</g>
</g>
<g
   style="fill:#ffffff"
   id="g36">
	<g
   style="fill:#ffffff"
   id="g34">
		<rect
   style="fill:#ffffff"
   id="rect32"
   height="16"
   width="16"
   y="16.636"
   x="266.6" />
	</g>
</g>
<g
   style="fill:#ffffff"
   id="g42">
	<g
   style="fill:#ffffff"
   id="g40">
		<rect
   style="fill:#ffffff"
   id="rect38"
   height="16"
   width="16"
   y="32.636"
   x="282.6" />
	</g>
</g>
<g
   style="fill:#ffffff"
   id="g48">
	<g
   style="fill:#ffffff"
   id="g46">
		<rect
   style="fill:#ffffff"
   id="rect44"
   height="16"
   width="16"
   y="16.636"
   x="298.6" />
	</g>
</g>
<g
   style="fill:#ffffff"
   id="g54">
	<g
   style="fill:#ffffff"
   id="g52">
		<rect
   style="fill:#ffffff"
   id="rect50"
   height="16"
   width="16"
   y="360.636"
   x="18.6" />
	</g>
</g>
<g
   style="fill:#ffffff"
   id="g60">
	<g
   style="fill:#ffffff"
   id="g58">
		<rect
   style="fill:#ffffff"
   id="rect56"
   height="16"
   width="16"
   y="376.636"
   x="2.6" />
	</g>
</g>
<g
   style="fill:#ffffff"
   id="g66">
	<g
   style="fill:#ffffff"
   id="g64">
		<rect
   style="fill:#ffffff"
   id="rect62"
   height="16"
   width="16"
   y="392.636"
   x="18.6" />
	</g>
</g>
<g
   style="fill:#ffffff"
   id="g72">
	<g
   style="fill:#ffffff"
   id="g70">
		<rect
   style="fill:#ffffff"
   id="rect68"
   height="16"
   width="16"
   y="376.636"
   x="34.6" />
	</g>
</g>
<g
   style="fill:#ffffff"
   id="g74">
</g>
<g
   style="fill:#ffffff"
   id="g76">
</g>
<g
   style="fill:#ffffff"
   id="g78">
</g>
<g
   style="fill:#ffffff"
   id="g80">
</g>
<g
   style="fill:#ffffff"
   id="g82">
</g>
<g
   style="fill:#ffffff"
   id="g84">
</g>
<g
   style="fill:#ffffff"
   id="g86">
</g>
<g
   style="fill:#ffffff"
   id="g88">
</g>
<g
   style="fill:#ffffff"
   id="g90">
</g>
<g
   style="fill:#ffffff"
   id="g92">
</g>
<g
   style="fill:#ffffff"
   id="g94">
</g>
<g
   style="fill:#ffffff"
   id="g96">
</g>
<g
   style="fill:#ffffff"
   id="g98">
</g>
<g
   style="fill:#ffffff"
   id="g100">
</g>
<g
   style="fill:#ffffff"
   id="g102">
</g>
</svg>
